STARTFONT 2.1
FONT jis.jis8600.16
SIZE 16 72 72
FONTBOUNDINGBOX 16 16 0 -2
STARTPROPERTIES 4
FONT_DESCENT 2
FONT_ASCENT 14
DEFAULT_CHAR 2
COPYRIGHT "Copyright (c) 1992 AT&T - All rights reserved."
ENDPROPERTIES
CHARS 126
STARTCHAR ch-2
ENCODING 2
SWIDTH 1000 0
DWIDTH 16 0
BBX 16 16 0 -2
BITMAP
0420
ffff
0420
0100
1288
1224
23e0
0810
544a
52a5
9e3c
0100
ffff
0540
3938
e10f
ENDCHAR
STARTCHAR ch-6
ENCODING 6
SWIDTH 1000 0
DWIDTH 16 0
BBX 16 16 0 -2
BITMAP
0810
ffff
0910
01f8
0100
3ffe
2102
2ff0
2104
27fc
2490
27f0
6490
4ffc
c924
3fff
ENDCHAR
STARTCHAR ch-7
ENCODING 7
SWIDTH 1000 0
DWIDTH 16 0
BBX 16 16 0 -2
BITMAP
0420
ffff
0420
2003
3e0e
4478
ff08
497f
7f08
491c
491c
7f2a
002a
5549
d508
8008
ENDCHAR
STARTCHAR ch-10
ENCODING 10
SWIDTH 1000 0
DWIDTH 16 0
BBX 16 16 0 -2
BITMAP
0420
0420
ffff
0420
1000
307c
6444
2c7c
1844
327c
fe00
12fe
54aa
56aa
d2aa
91ff
ENDCHAR
STARTCHAR ch-11
ENCODING 11
SWIDTH 1000 0
DWIDTH 16 0
BBX 16 16 0 -2
BITMAP
0420
ffff
0420
1000
5dff
5020
50fe
fe82
10fe
5482
92fe
3482
0cfe
1844
30c6
e183
ENDCHAR
STARTCHAR ch-19
ENCODING 19
SWIDTH 1000 0
DWIDTH 16 0
BBX 16 16 0 -2
BITMAP
0420
ffff
0420
0080
1cf8
f188
1310
11fe
fd22
11fe
3922
3522
55fe
9000
114a
1249
ENDCHAR
STARTCHAR ch-22
ENCODING 22
SWIDTH 1000 0
DWIDTH 16 0
BBX 16 16 0 -2
BITMAP
0420
ffff
0420
1010
7efe
4244
7e28
40fe
7e10
427c
7e10
0100
ffff
0540
3938
e10f
ENDCHAR
STARTCHAR ch-23
ENCODING 23
SWIDTH 1000 0
DWIDTH 16 0
BBX 16 16 0 -2
BITMAP
0420
ffff
0420
0010
3efe
2244
3e28
20fe
7e10
a27c
3e10
0100
ffff
0540
3938
e10f
ENDCHAR
STARTCHAR ch-26
ENCODING 26
SWIDTH 1000 0
DWIDTH 16 0
BBX 16 16 0 -2
BITMAP
0420
ffff
0420
2000
3c22
4414
ff3e
4908
7f08
493e
4908
7f08
007f
5508
d508
8008
ENDCHAR
STARTCHAR ch-34
ENCODING 34
SWIDTH 1000 0
DWIDTH 16 0
BBX 16 16 0 -2
BITMAP
0440
ffff
0440
0820
7f3f
2220
ffbe
0002
3e3e
2220
3e3e
2220
3e3e
2220
2221
261f
ENDCHAR
STARTCHAR ch-45
ENCODING 45
SWIDTH 1000 0
DWIDTH 16 0
BBX 16 16 0 -2
BITMAP
0420
ffff
0420
7e7e
4242
7e7e
4242
7e7e
4102
5ffa
4912
4ff2
4912
4ff2
4542
5936
ENDCHAR
STARTCHAR ch-47
ENCODING 47
SWIDTH 1000 0
DWIDTH 16 0
BBX 16 16 0 -2
BITMAP
0420
ffff
0420
61f8
3108
c1f8
6108
0fff
2100
63fe
4492
c126
3ffc
2444
2444
ffff
ENDCHAR
STARTCHAR ch-48
ENCODING 48
SWIDTH 1000 0
DWIDTH 16 0
BBX 16 16 0 -2
BITMAP
0420
ffff
0420
107c
3044
647c
2c44
18fe
32aa
fefe
1200
50fe
5442
d624
9218
10e7
ENDCHAR
STARTCHAR ch-63
ENCODING 63
SWIDTH 1000 0
DWIDTH 16 0
BBX 16 16 0 -2
BITMAP
0420
ffff
0420
3ffc
2244
3ffc
1022
6444
28ff
1588
fefe
1288
54fe
d688
9288
10ff
ENDCHAR
STARTCHAR ch-77
ENCODING 77
SWIDTH 1000 0
DWIDTH 16 0
BBX 16 16 0 -2
BITMAP
0100
0100
01fc
0100
0100
3fff
2001
2102
2100
2ffe
2100
2100
6100
4101
c183
00fe
ENDCHAR
STARTCHAR ch-78
ENCODING 78
SWIDTH 1000 0
DWIDTH 16 0
BBX 16 16 0 -2
BITMAP
0080
00fc
0080
3fff
2001
2102
21f8
2f00
2102
20fe
2000
2220
6220
4221
c633
1c1e
ENDCHAR
STARTCHAR ch-80
ENCODING 80
SWIDTH 1000 0
DWIDTH 16 0
BBX 16 16 0 -2
BITMAP
0080
00fe
0080
3fff
2001
2102
21f8
2f00
2102
20fe
2000
27fe
6400
47fe
c400
07fe
ENDCHAR
STARTCHAR ch-84
ENCODING 84
SWIDTH 1000 0
DWIDTH 16 0
BBX 16 16 0 -2
BITMAP
0080
00fc
0080
3fff
2101
21fa
2f00
2102
20fe
2040
3fff
2208
6110
40e0
c3b8
1e0f
ENDCHAR
STARTCHAR ch-85
ENCODING 85
SWIDTH 1000 0
DWIDTH 16 0
BBX 16 16 0 -2
BITMAP
0100
01fc
0100
3fff
2101
21e2
2f08
21f8
2800
2f3c
2924
3324
6a25
4647
cd80
38ff
ENDCHAR
STARTCHAR ch-90
ENCODING 90
SWIDTH 1000 0
DWIDTH 16 0
BBX 16 16 0 -2
BITMAP
0080
00fe
0080
3fff
2101
21fa
2f00
2102
20fe
2000
2110
2912
6d16
4514
c110
1fff
ENDCHAR
STARTCHAR ch-92
ENCODING 92
SWIDTH 1000 0
DWIDTH 16 0
BBX 16 16 0 -2
BITMAP
0080
00fe
0080
3fff
2101
2ff8
2101
27ff
2444
27fc
2444
27fc
6080
4ffe
c102
0e0e
ENDCHAR
STARTCHAR ch-94
ENCODING 94
SWIDTH 1000 0
DWIDTH 16 0
BBX 16 16 0 -2
BITMAP
0100
01fc
0100
3ffe
2102
2ff8
2102
20fe
2000
2bf8
2a08
2ffc
6004
5fff
c208
0c06
ENDCHAR
STARTCHAR ch-95
ENCODING 95
SWIDTH 1000 0
DWIDTH 16 0
BBX 16 16 0 -2
BITMAP
0010
7c1e
4410
44ff
4481
7c90
009e
fef0
2091
408f
7c80
04a4
04a4
0ca5
0925
3843
ENDCHAR
STARTCHAR ch-103
ENCODING 103
SWIDTH 1000 0
DWIDTH 16 0
BBX 16 16 0 -2
BITMAP
0800
0f3e
0808
7f88
4888
7e7f
4890
4f90
4910
5f9e
7202
5f82
d202
9f86
9204
1f9c
ENDCHAR
STARTCHAR ch-107
ENCODING 107
SWIDTH 1000 0
DWIDTH 16 0
BBX 16 16 0 -2
BITMAP
0100
0100
0100
3ffc
2104
2104
2104
2104
3ffc
0100
0108
0108
01fc
0f06
7802
0000
ENDCHAR
STARTCHAR ch-113
ENCODING 113
SWIDTH 1000 0
DWIDTH 16 0
BBX 16 16 0 -2
BITMAP
0000
fff8
0008
00e8
3f88
0208
3fe8
2228
2228
2228
3fe8
0208
024c
07e5
7c37
0002
ENDCHAR
STARTCHAR ch-121
ENCODING 121
SWIDTH 1000 0
DWIDTH 16 0
BBX 16 16 0 -2
BITMAP
1000
1000
10fe
fe10
9210
9210
9210
9210
9210
fe10
1010
1410
1410
1e10
72ff
c000
ENDCHAR
STARTCHAR ch-123
ENCODING 123
SWIDTH 1000 0
DWIDTH 16 0
BBX 16 16 0 -2
BITMAP
1010
1010
1010
fe10
93ff
9240
9240
9240
fe40
1040
1040
1240
1240
1f60
f13e
0000
ENDCHAR
STARTCHAR ch-138
ENCODING 138
SWIDTH 1000 0
DWIDTH 16 0
BBX 16 16 0 -2
BITMAP
1010
1010
1010
ffff
9244
9244
9244
926c
9228
fe38
1010
1438
1428
1e6c
72c6
c183
ENDCHAR
STARTCHAR ch-139
ENCODING 139
SWIDTH 1000 0
DWIDTH 16 0
BBX 16 16 0 -2
BITMAP
2020
2020
2020
fbfe
aa22
aa22
aa72
aa52
aa52
fada
228a
2a02
2a02
7a02
ca02
020e
ENDCHAR
STARTCHAR ch-140
ENCODING 140
SWIDTH 1000 0
DWIDTH 16 0
BBX 16 16 0 -2
BITMAP
1010
1010
1010
fefe
9210
9210
9210
92fe
fe10
1010
1410
15ff
1e10
7210
c010
0010
ENDCHAR
STARTCHAR ch-147
ENCODING 147
SWIDTH 1000 0
DWIDTH 16 0
BBX 16 16 0 -2
BITMAP
2002
23e2
2022
f822
a822
a9e2
a902
a902
a902
f9e2
2022
2822
2822
7c62
c442
01c2
ENDCHAR
STARTCHAR ch-149
ENCODING 149
SWIDTH 1000 0
DWIDTH 16 0
BBX 16 16 0 -2
BITMAP
0000
ffff
0100
0100
7ffe
0240
0c30
391c
e107
3ffc
2104
2104
3ffc
0102
07ff
fc01
ENDCHAR
STARTCHAR ch-163
ENCODING 163
SWIDTH 1000 0
DWIDTH 16 0
BBX 16 16 0 -2
BITMAP
1048
1048
104c
fec4
9286
9282
93a3
9220
fe20
1020
1064
1444
1446
1e42
725e
c0f3
ENDCHAR
STARTCHAR ch-164
ENCODING 164
SWIDTH 1000 0
DWIDTH 16 0
BBX 16 16 0 -2
BITMAP
0000
7ffc
090c
4c98
6670
23c0
0e70
381c
e107
3ffc
2104
2104
3ffc
0102
01ff
ff01
ENDCHAR
STARTCHAR ch-169
ENCODING 169
SWIDTH 1000 0
DWIDTH 16 0
BBX 16 16 0 -2
BITMAP
0100
4102
4102
7ffe
0200
0400
ffff
0100
3ffc
2104
2104
3ffc
0100
0104
01fe
ff03
ENDCHAR
STARTCHAR ch-170
ENCODING 170
SWIDTH 1000 0
DWIDTH 16 0
BBX 16 16 0 -2
BITMAP
1004
1064
1034
fe14
9204
9204
92c4
9264
fe24
1004
1407
143c
1ee4
7204
c004
0004
ENDCHAR
STARTCHAR ch-171
ENCODING 171
SWIDTH 1000 0
DWIDTH 16 0
BBX 16 16 0 -2
BITMAP
2080
2080
20fe
fd82
a502
a5f2
a712
a412
fc12
20f6
2084
289c
2880
3c81
e4c3
007e
ENDCHAR
STARTCHAR ch-175
ENCODING 175
SWIDTH 1000 0
DWIDTH 16 0
BBX 16 16 0 -2
BITMAP
1006
101c
1070
fe40
9240
9240
927e
9244
fe44
1044
1044
1444
1444
1e44
7244
c1ff
ENDCHAR
STARTCHAR ch-176
ENCODING 176
SWIDTH 1000 0
DWIDTH 16 0
BBX 16 16 0 -2
BITMAP
1010
1010
1010
fe10
92fe
9292
9292
9292
fe92
10fe
1092
1492
1492
1e92
7292
c0fe
ENDCHAR
STARTCHAR ch-182
ENCODING 182
SWIDTH 1000 0
DWIDTH 16 0
BBX 16 16 0 -2
BITMAP
1044
1044
1044
fe44
93ff
9244
9244
9244
fe44
107c
1044
1444
1444
1e44
7244
c07c
ENDCHAR
STARTCHAR ch-196
ENCODING 196
SWIDTH 1000 0
DWIDTH 16 0
BBX 16 16 0 -2
BITMAP
1010
1010
1010
fe10
93ff
9210
9210
9210
fe10
10fe
1082
1482
1482
1e82
7282
c0fe
ENDCHAR
STARTCHAR ch-198
ENCODING 198
SWIDTH 1000 0
DWIDTH 16 0
BBX 16 16 0 -2
BITMAP
1000
107c
1044
fe44
9244
927c
9244
9244
fe44
1044
107c
1444
1444
1e44
7244
c1ff
ENDCHAR
STARTCHAR ch-199
ENCODING 199
SWIDTH 1000 0
DWIDTH 16 0
BBX 16 16 0 -2
BITMAP
1010
1010
1010
feff
9281
9281
9220
9222
922e
fe38
1020
1220
1220
1f21
7133
c01e
ENDCHAR
STARTCHAR ch-201
ENCODING 201
SWIDTH 1000 0
DWIDTH 16 0
BBX 16 16 0 -2
BITMAP
1010
1038
106c
fec6
9383
927c
9200
9200
fefe
1022
1422
1422
1e22
722e
c020
0020
ENDCHAR
STARTCHAR ch-203
ENCODING 203
SWIDTH 1000 0
DWIDTH 16 0
BBX 16 16 0 -2
BITMAP
0000
ffff
0101
1100
11fc
3d00
6700
c1ff
0100
3ffc
2104
2104
3ffc
0102
01ff
ff01
ENDCHAR
STARTCHAR ch-205
ENCODING 205
SWIDTH 1000 0
DWIDTH 16 0
BBX 16 16 0 -2
BITMAP
0302
6186
308c
1008
ffff
8101
8101
3ffc
2104
2104
2104
3ffc
0100
0104
0ffe
f803
ENDCHAR
STARTCHAR ch-206
ENCODING 206
SWIDTH 1000 0
DWIDTH 16 0
BBX 16 16 0 -2
BITMAP
2000
21ff
2100
f900
a9ff
a920
a920
a93e
f922
2122
2922
3b22
6a62
c646
0cc4
019c
ENDCHAR
STARTCHAR ch-212
ENCODING 212
SWIDTH 1000 0
DWIDTH 16 0
BBX 16 16 0 -2
BITMAP
1000
10fe
1082
fe82
9282
92ba
92aa
92aa
feaa
10aa
10aa
14ba
1482
1e82
7282
c0fe
ENDCHAR
STARTCHAR ch-217
ENCODING 217
SWIDTH 1000 0
DWIDTH 16 0
BBX 16 16 0 -2
BITMAP
1010
1010
10fe
fe10
9210
9210
93ff
9200
fe10
1010
14fe
1410
1e10
7210
c1ff
0000
ENDCHAR
STARTCHAR ch-219
ENCODING 219
SWIDTH 1000 0
DWIDTH 16 0
BBX 16 16 0 -2
BITMAP
2010
2050
2050
fcfe
a490
a590
a410
a5ff
fc54
2054
2054
28d6
2892
3d93
e410
0010
ENDCHAR
STARTCHAR ch-222
ENCODING 222
SWIDTH 1000 0
DWIDTH 16 0
BBX 16 16 0 -2
BITMAP
1006
101c
10f0
fe10
9210
93ff
9210
9210
fe10
10fe
1082
1482
1482
1e82
7282
c0fe
ENDCHAR
STARTCHAR ch-223
ENCODING 223
SWIDTH 1000 0
DWIDTH 16 0
BBX 16 16 0 -2
BITMAP
2010
2010
2010
fdff
a444
a4c6
a583
a444
fc44
206c
2038
2810
2838
3c6c
e4c6
0183
ENDCHAR
STARTCHAR ch-228
ENCODING 228
SWIDTH 1000 0
DWIDTH 16 0
BBX 16 16 0 -2
BITMAP
1010
1038
1028
fe6c
92c6
9383
9200
92fe
9200
fe00
10fe
1482
1482
1e82
7282
c0fe
ENDCHAR
STARTCHAR ch-233
ENCODING 233
SWIDTH 1000 0
DWIDTH 16 0
BBX 16 16 0 -2
BITMAP
0000
fdf8
1108
11c8
1168
1d29
7309
c607
0100
3ffc
2104
2104
3ffc
0104
01fe
ff03
ENDCHAR
STARTCHAR ch-236
ENCODING 236
SWIDTH 1000 0
DWIDTH 16 0
BBX 16 16 0 -2
BITMAP
0420
0420
7ffe
0420
0420
ffff
0810
1108
3ffc
d10b
1108
1ff8
0100
0108
01fc
7f06
ENDCHAR
STARTCHAR ch-237
ENCODING 237
SWIDTH 1000 0
DWIDTH 16 0
BBX 16 16 0 -2
BITMAP
1000
11ff
1020
fe64
9244
925e
92f2
9200
fe10
1010
10fe
1410
1e10
7210
c1ff
0000
ENDCHAR
STARTCHAR ch-238
ENCODING 238
SWIDTH 1000 0
DWIDTH 16 0
BBX 16 16 0 -2
BITMAP
0100
0100
ffff
0420
2424
6c26
d823
0100
3ffc
2104
2104
3ffc
0100
0104
07fe
fc03
ENDCHAR
STARTCHAR ch-239
ENCODING 239
SWIDTH 1000 0
DWIDTH 16 0
BBX 16 16 0 -2
BITMAP
1022
1022
10fe
fe24
9224
9228
93ff
9210
fe30
1066
10fc
15a0
1420
1e21
7233
c01e
ENDCHAR
STARTCHAR ch-248
ENCODING 248
SWIDTH 1000 0
DWIDTH 16 0
BBX 16 16 0 -2
BITMAP
1010
1111
1193
fe92
9210
92fe
9282
9282
fefe
1082
1082
14fe
1482
3e82
e282
008e
ENDCHAR
STARTCHAR ch-249
ENCODING 249
SWIDTH 1000 0
DWIDTH 16 0
BBX 16 16 0 -2
BITMAP
2000
23fe
2004
f8c8
a830
abfe
aa22
aa22
abfe
fa22
2222
2bfe
2a22
7a22
ca22
0226
ENDCHAR
STARTCHAR ch-251
ENCODING 251
SWIDTH 1000 0
DWIDTH 16 0
BBX 16 16 0 -2
BITMAP
2084
20cc
2048
fc00
a5fe
a502
a502
a502
fd02
21fe
2048
2848
2848
3cc9
e489
0187
ENDCHAR
STARTCHAR ch-254
ENCODING 254
SWIDTH 1000 0
DWIDTH 16 0
BBX 16 16 0 -2
BITMAP
2054
2096
2392
f890
a890
abff
a890
a892
f892
20d4
2394
2898
2889
788d
c897
03a2
ENDCHAR
STARTCHAR ch-256
ENCODING 256
SWIDTH 1000 0
DWIDTH 16 0
BBX 16 16 0 -2
BITMAP
0000
7ffe
4442
4442
7ffe
0800
1ffe
3202
ffe2
2222
2222
3fe2
0242
03e6
7e24
001c
ENDCHAR
STARTCHAR ch-258
ENCODING 258
SWIDTH 1000 0
DWIDTH 16 0
BBX 16 16 0 -2
BITMAP
2040
207c
20c4
f98c
ab58
a870
a8dc
ab87
a820
f9fe
2020
21fe
2820
7bff
c820
0020
ENDCHAR
STARTCHAR ch-259
ENCODING 259
SWIDTH 1000 0
DWIDTH 16 0
BBX 16 16 0 -2
BITMAP
3ffe
2000
2ffc
2000
3fff
2444
676c
5c38
c10f
1ff8
1108
1108
1ff8
0104
03fe
7e03
ENDCHAR
STARTCHAR ch-262
ENCODING 262
SWIDTH 1000 0
DWIDTH 16 0
BBX 16 16 0 -2
BITMAP
1000
10fe
1082
fe82
92fe
9282
9282
92fe
fe82
1082
14fe
1428
1e68
7249
c0c9
0187
ENDCHAR
STARTCHAR ch-264
ENCODING 264
SWIDTH 1000 0
DWIDTH 16 0
BBX 16 16 0 -2
BITMAP
2000
20bc
20a4
fca4
a4a4
a4bc
a480
a480
fcfe
2002
2002
29ff
2800
3c44
e4c6
0183
ENDCHAR
STARTCHAR ch-265
ENCODING 265
SWIDTH 1000 0
DWIDTH 16 0
BBX 16 16 0 -2
BITMAP
2007
21fc
2091
fcdb
a44a
a400
a4fe
a404
fc08
2010
21ff
2810
2810
3c10
e410
0070
ENDCHAR
STARTCHAR ch-266
ENCODING 266
SWIDTH 1000 0
DWIDTH 16 0
BBX 16 16 0 -2
BITMAP
2022
20e2
238a
f88a
a88a
abea
a88a
a88a
a9ca
f9aa
22aa
228a
2882
7882
c882
0086
ENDCHAR
STARTCHAR ch-269
ENCODING 269
SWIDTH 1000 0
DWIDTH 16 0
BBX 16 16 0 -2
BITMAP
2010
2038
2028
fc6c
a4c6
a583
a47c
a410
fc10
21ff
2010
2854
2854
3cd6
e593
0070
ENDCHAR
STARTCHAR ch-273
ENCODING 273
SWIDTH 1000 0
DWIDTH 16 0
BBX 16 16 0 -2
BITMAP
f807
13fc
2020
793e
0920
5920
33fe
6800
c7ff
0100
3ff8
2108
3ff8
0104
01fe
ff03
ENDCHAR
STARTCHAR ch-274
ENCODING 274
SWIDTH 1000 0
DWIDTH 16 0
BBX 16 16 0 -2
BITMAP
2002
278e
20b8
f888
a908
a928
abae
a8a8
aaa8
faa8
22a8
2ba8
297e
7900
cbc0
067f
ENDCHAR
STARTCHAR ch-280
ENCODING 280
SWIDTH 1000 0
DWIDTH 16 0
BBX 16 16 0 -2
BITMAP
2100
2100
210f
fbe9
ac89
a889
a889
aff9
f889
2089
2089
29c9
3949
6b6f
c630
0c00
ENDCHAR
STARTCHAR ch-282
ENCODING 282
SWIDTH 1000 0
DWIDTH 16 0
BBX 16 16 0 -2
BITMAP
0420
fc3f
0420
7c3e
0420
fc3f
0820
3020
0100
3ffc
2104
2104
3ffc
0104
01fe
ff03
ENDCHAR
STARTCHAR ch-284
ENCODING 284
SWIDTH 1000 0
DWIDTH 16 0
BBX 16 16 0 -2
BITMAP
0100
0100
7ffe
4102
44a0
2446
648b
0ff8
f800
0100
3ffc
2104
3ffc
0108
07fc
7c06
ENDCHAR
STARTCHAR ch-293
ENCODING 293
SWIDTH 1000 0
DWIDTH 16 0
BBX 16 16 0 -2
BITMAP
2106
213c
2120
f920
afe0
a93f
a924
aba4
fb64
2524
2524
2124
2924
7924
c944
0104
ENDCHAR
STARTCHAR ch-297
ENCODING 297
SWIDTH 1000 0
DWIDTH 16 0
BBX 16 16 0 -2
BITMAP
2000
21ff
2101
fd11
a57d
a511
a511
a57d
fd01
217d
2145
2945
297d
3d01
e501
0207
ENDCHAR
STARTCHAR ch-308
ENCODING 308
SWIDTH 1000 0
DWIDTH 16 0
BBX 16 16 0 -2
BITMAP
2000
20fc
2084
fc84
a4fc
a484
a484
a4fc
fc40
20ff
2195
2b25
2849
3d93
e422
00ce
ENDCHAR
STARTCHAR ch-311
ENCODING 311
SWIDTH 1000 0
DWIDTH 16 0
BBX 16 16 0 -2
BITMAP
2122
21a6
20a4
fdfe
a450
a450
a7ff
a448
fc84
21fe
230b
2808
28f8
3c82
e486
007c
ENDCHAR
STARTCHAR ch-315
ENCODING 315
SWIDTH 1000 0
DWIDTH 16 0
BBX 16 16 0 -2
BITMAP
2010
2010
21ff
fc10
a4fe
a410
a5ff
a400
fcfe
2082
20fe
2882
28fe
3c82
e482
008e
ENDCHAR
STARTCHAR ch-319
ENCODING 319
SWIDTH 1000 0
DWIDTH 16 0
BBX 16 16 0 -2
BITMAP
2020
2020
23fe
fa02
aa02
a900
a9de
a952
a952
fa52
2152
28d6
2890
7891
c993
030e
ENDCHAR
STARTCHAR ch-329
ENCODING 329
SWIDTH 1000 0
DWIDTH 16 0
BBX 16 16 0 -2
BITMAP
2242
2366
2124
f9fe
a922
a922
a9fe
a922
a922
f9fe
2020
2820
2bff
7c20
c420
0020
ENDCHAR
STARTCHAR ch-331
ENCODING 331
SWIDTH 1000 0
DWIDTH 16 0
BBX 16 16 0 -2
BITMAP
2242
2366
2124
f800
a9fc
a924
a924
a9fc
a924
f924
21fc
2124
2924
2925
7925
ca23
ENDCHAR
STARTCHAR ch-332
ENCODING 332
SWIDTH 1000 0
DWIDTH 16 0
BBX 16 16 0 -2
BITMAP
2022
20e2
2392
f89a
a88a
abe2
a892
a89a
a9ca
f9a2
2283
229e
2882
7882
c882
0082
ENDCHAR
STARTCHAR ch-334
ENCODING 334
SWIDTH 1000 0
DWIDTH 16 0
BBX 16 16 0 -2
BITMAP
20fc
2084
2084
fcfc
a484
a484
a4fc
a440
fcff
2181
2331
29e1
2901
3d13
e4f2
000e
ENDCHAR
STARTCHAR ch-339
ENCODING 339
SWIDTH 1000 0
DWIDTH 16 0
BBX 16 16 0 -2
BITMAP
2020
2070
20d8
f98c
af77
a800
abc2
aa52
aa52
fbd2
2252
2a52
2bc2
7a42
ca42
02ce
ENDCHAR
STARTCHAR ch-341
ENCODING 341
SWIDTH 1000 0
DWIDTH 16 0
BBX 16 16 0 -2
BITMAP
0810
1c10
3610
62fe
c892
7e92
4292
7e92
4292
7efe
4010
4412
4412
5e1e
7273
c1c1
ENDCHAR
STARTCHAR ch-343
ENCODING 343
SWIDTH 1000 0
DWIDTH 16 0
BBX 16 16 0 -2
BITMAP
2010
2020
20fc
fc84
a4fc
a484
a484
a4fc
fc00
21fe
2820
28fc
3c20
6420
c3ff
0000
ENDCHAR
STARTCHAR ch-345
ENCODING 345
SWIDTH 1000 0
DWIDTH 16 0
BBX 16 16 0 -2
BITMAP
2000
21ff
2000
fcfe
a482
a482
a4fe
a480
fcff
20a9
21a9
29ff
2aa9
3ca9
e4a9
00ab
ENDCHAR
STARTCHAR ch-351
ENCODING 351
SWIDTH 1000 0
DWIDTH 16 0
BBX 16 16 0 -2
BITMAP
2000
21ff
2111
fdff
a511
a511
a5ff
a400
fcfe
2082
20fe
2882
28fe
3c82
e482
008e
ENDCHAR
STARTCHAR ch-352
ENCODING 352
SWIDTH 1000 0
DWIDTH 16 0
BBX 16 16 0 -2
BITMAP
2000
21ff
2000
fcfe
a482
a482
a4fe
a400
a400
fdff
2111
2111
29ff
2911
3d11
e5ff
ENDCHAR
STARTCHAR ch-355
ENCODING 355
SWIDTH 1000 0
DWIDTH 16 0
BBX 16 16 0 -2
BITMAP
2108
2108
2108
ffdf
aa30
aa00
aa1f
abc2
fa44
2244
225f
2a44
3a44
6e44
c444
0dcc
ENDCHAR
STARTCHAR ch-358
ENCODING 358
SWIDTH 1000 0
DWIDTH 16 0
BBX 16 16 0 -2
BITMAP
0000
23de
2242
2242
fa42
abde
aa00
aa3e
abd2
fa16
2214
2bdc
2a08
7a1c
ca36
0263
ENDCHAR
STARTCHAR ch-360
ENCODING 360
SWIDTH 1000 0
DWIDTH 16 0
BBX 16 16 0 -2
BITMAP
0000
fff8
0408
0408
7fcc
0805
1007
6002
1010
7e7e
5252
5252
7e7e
1414
3e3e
e2e3
ENDCHAR
STARTCHAR ch-362
ENCODING 362
SWIDTH 1000 0
DWIDTH 16 0
BBX 16 16 0 -2
BITMAP
2000
20fc
2084
fcfc
a484
a484
a4fc
a400
a7ff
fc80
21ff
2b25
2849
3d93
e422
00ce
ENDCHAR
STARTCHAR ch-366
ENCODING 366
SWIDTH 1000 0
DWIDTH 16 0
BBX 16 16 0 -2
BITMAP
2080
2080
21ff
fd00
a6fe
a482
a4fe
a482
fcfe
2040
207c
28c4
29ac
3c38
e46c
01c7
ENDCHAR
STARTCHAR ch-372
ENCODING 372
SWIDTH 1000 0
DWIDTH 16 0
BBX 16 16 0 -2
BITMAP
2100
211e
2112
f912
aff2
a91e
a912
a912
abd2
fa5e
2252
2a52
2a52
7bd2
c812
0026
ENDCHAR
STARTCHAR ch-374
ENCODING 374
SWIDTH 1000 0
DWIDTH 16 0
BBX 16 16 0 -2
BITMAP
2124
2124
23ff
f924
a924
a93c
a900
a9fe
f820
23ff
20a8
28a8
29ac
7926
cb23
0020
ENDCHAR
STARTCHAR ch-376
ENCODING 376
SWIDTH 1000 0
DWIDTH 16 0
BBX 16 16 0 -2
BITMAP
2000
20fe
2082
fc9e
a492
a492
a492
a5ff
fd01
217d
2145
2945
2945
3d7d
e501
0107
ENDCHAR
STARTCHAR ch-383
ENCODING 383
SWIDTH 1000 0
DWIDTH 16 0
BBX 16 16 0 -2
BITMAP
2000
21fe
2122
f9fe
a922
a922
a9fe
a820
a9fe
f922
21fe
2922
2922
3dfe
e421
001f
ENDCHAR
STARTCHAR ch-386
ENCODING 386
SWIDTH 1000 0
DWIDTH 16 0
BBX 16 16 0 -2
BITMAP
2080
208f
23e9
fa29
aa29
abea
aa2a
aa2a
fbe9
2209
2a49
2a49
7a69
cbab
0628
0008
ENDCHAR
STARTCHAR ch-397
ENCODING 397
SWIDTH 1000 0
DWIDTH 16 0
BBX 16 16 0 -2
BITMAP
0008
ff08
0008
7e7f
4249
7e49
0049
ff49
a57f
a508
c708
8108
bd0a
910a
911f
9371
ENDCHAR
STARTCHAR ch-415
ENCODING 415
SWIDTH 1000 0
DWIDTH 16 0
BBX 16 16 0 -2
BITMAP
2000
21ff
2101
fd7d
a444
a444
a47c
a444
fc44
207c
2010
29ff
2800
3c44
e4c6
0183
ENDCHAR
STARTCHAR ch-418
ENCODING 418
SWIDTH 1000 0
DWIDTH 16 0
BBX 16 16 0 -2
BITMAP
0810
2952
2a54
1428
2244
0000
7ffe
4002
4102
1ff8
1108
1108
1ff8
0108
01fc
7f06
ENDCHAR
STARTCHAR ch-427
ENCODING 427
SWIDTH 1000 0
DWIDTH 16 0
BBX 16 16 0 -2
BITMAP
0810
7f10
083f
ffa2
1462
5514
9488
2414
4c63
0100
3ffc
2104
3ffc
0104
01fe
ff03
ENDCHAR
STARTCHAR ch-431
ENCODING 431
SWIDTH 1000 0
DWIDTH 16 0
BBX 16 16 0 -2
BITMAP
0820
7f20
087f
ffc2
0822
ffb6
101c
3f14
6136
c763
0100
3ffc
2104
3ffc
0102
fffd
ENDCHAR
STARTCHAR ch-435
ENCODING 435
SWIDTH 1000 0
DWIDTH 16 0
BBX 16 16 0 -2
BITMAP
2092
20d6
2054
fc10
a5ff
a501
a57d
a444
fc44
207c
2010
2810
28fe
3c10
e410
01ff
ENDCHAR
STARTCHAR ch-442
ENCODING 442
SWIDTH 1000 0
DWIDTH 16 0
BBX 16 16 0 -2
BITMAP
1000
11ff
1111
7dff
5511
55ff
5420
5448
54d0
7c22
11ff
1011
1454
1cd6
7593
c010
ENDCHAR
STARTCHAR ch-443
ENCODING 443
SWIDTH 1000 0
DWIDTH 16 0
BBX 16 16 0 -2
BITMAP
2010
20fe
2092
fdff
a492
a4fe
a410
a4fe
fc92
20fe
2020
29ff
2844
3ce8
e43c
01e7
ENDCHAR
STARTCHAR ch-445
ENCODING 445
SWIDTH 1000 0
DWIDTH 16 0
BBX 16 16 0 -2
BITMAP
0200
07f8
1c10
7620
03c0
1e78
f18f
00c0
0700
11d0
7e7e
5252
7e7e
1414
3e3e
e2e3
ENDCHAR
STARTCHAR ch-448
ENCODING 448
SWIDTH 1000 0
DWIDTH 16 0
BBX 16 16 0 -2
BITMAP
2010
2010
21ff
fc10
a521
a4aa
a410
a4a2
fd49
2074
2010
29ff
2810
3c10
e410
0010
ENDCHAR
STARTCHAR ch-452
ENCODING 452
SWIDTH 1000 0
DWIDTH 16 0
BBX 16 16 0 -2
BITMAP
0810
7f10
087c
ff94
2254
ffb4
0824
7f75
08d3
0100
3ffc
2104
3ffc
0104
01fe
ff03
ENDCHAR
STARTCHAR ch-454
ENCODING 454
SWIDTH 1000 0
DWIDTH 16 0
BBX 16 16 0 -2
BITMAP
2048
2048
23ff
fc48
a448
a5fe
a502
a5fe
fd02
21fe
2020
2bff
2848
3ccc
e586
0303
ENDCHAR
STARTCHAR ch-455
ENCODING 455
SWIDTH 1000 0
DWIDTH 16 0
BBX 16 16 0 -2
BITMAP
0420
ffff
0420
1ff8
1008
1ff8
1008
1ff8
0200
ffff
0910
3ffc
e917
0ff0
0104
7ffa
ENDCHAR
STARTCHAR ch-459
ENCODING 459
SWIDTH 1000 0
DWIDTH 16 0
BBX 16 16 0 -2
BITMAP
2006
20fc
2111
fc92
a5ff
a454
a454
a4d6
fd83
2010
2018
2828
28a2
3ca3
e5a5
011c
ENDCHAR
STARTCHAR ch-464
ENCODING 464
SWIDTH 1000 0
DWIDTH 16 0
BBX 16 16 0 -2
BITMAP
2092
20d6
2054
fdff
a501
a57d
a444
a444
fc7c
2010
20fe
2892
2892
3c92
e496
0010
ENDCHAR
STARTCHAR ch-466
ENCODING 466
SWIDTH 1000 0
DWIDTH 16 0
BBX 16 16 0 -2
BITMAP
2088
2088
27ff
f888
a820
abfe
a850
a888
ab06
f888
2088
27ff
2888
7888
c988
0308
ENDCHAR
STARTCHAR ch-480
ENCODING 480
SWIDTH 1000 0
DWIDTH 16 0
BBX 16 16 0 -2
BITMAP
2006
201c
21f0
fc92
a454
a5ff
a454
a4d6
fd93
2000
20fe
2892
28fe
3c92
e492
00fe
ENDCHAR
STARTCHAR ch-495
ENCODING 495
SWIDTH 1000 0
DWIDTH 16 0
BBX 16 16 0 -2
BITMAP
2020
21fc
2020
fbfe
a800
a904
afdf
a904
f9c4
271f
2000
2bff
2888
7889
c989
0307
ENDCHAR
STARTCHAR ch-498
ENCODING 498
SWIDTH 1000 0
DWIDTH 16 0
BBX 16 16 0 -2
BITMAP
0100
1ff8
1108
1108
1ff8
0110
01f8
3f0c
1010
7e7e
5252
5252
7e7e
1414
3e3e
e2e3
ENDCHAR
STARTCHAR ch-502
ENCODING 502
SWIDTH 1000 0
DWIDTH 16 0
BBX 16 16 0 -2
BITMAP
2000
23f0
212f
f9e9
a929
a9e9
a92f
abe0
a820
f806
20fc
2810
28fe
7810
c810
01ff
ENDCHAR
STARTCHAR ch-503
ENCODING 503
SWIDTH 1000 0
DWIDTH 16 0
BBX 16 16 0 -2
BITMAP
2122
21a6
20a4
fbff
aa01
aafd
a884
a8fc
a800
f9fe
2122
2922
29fe
3d22
e522
01fe
ENDCHAR
STARTCHAR ch-505
ENCODING 505
SWIDTH 1000 0
DWIDTH 16 0
BBX 16 16 0 -2
BITMAP
3c7e
4412
ff32
4966
7f28
493e
7f48
41ff
c708
8108
7ffe
4102
7ffe
0104
07fe
fc03
ENDCHAR
STARTCHAR ch-507
ENCODING 507
SWIDTH 1000 0
DWIDTH 16 0
BBX 16 16 0 -2
BITMAP
2104
2088
23fe
f820
a9fc
a820
abff
a804
fbd2
2090
23ff
2892
28d4
3b89
e895
01a3
ENDCHAR
STARTCHAR ch-510
ENCODING 510
SWIDTH 1000 0
DWIDTH 16 0
BBX 16 16 0 -2
BITMAP
20f8
2110
27ff
fa44
ab87
aa7c
aa00
abff
fa00
227c
2a00
2a7c
3a00
6afe
c482
00fe
ENDCHAR
ENDFONT
